<svg xmlns="http://www.w3.org/2000/svg" version="1.1" xmlns:xlink="http://www.w3.org/1999/xlink" width="200" height="200"><svg xmlns="http://www.w3.org/2000/svg" version="1.1" xmlns:xlink="http://www.w3.org/1999/xlink" viewBox="0 0 200 200"><rect width="200" height="200" fill="url('#gradient')"></rect><defs><linearGradient id="SvgjsLinearGradient1001" gradientTransform="rotate(45 0.5 0.5)"><stop offset="0%" stop-color="#688a74"></stop><stop offset="100%" stop-color="#688a74"></stop></linearGradient></defs><g><g fill="#ffffff" transform="matrix(5.472388663967611,0,0,5.472388663967611,28.12040665068608,138.908058997938)" stroke="#ffffff" stroke-width="0.2"><path d="M5.75 0L1.07 0L1.07-14.22L5.65-14.22Q7.54-14.22 9.04-13.36Q10.55-12.51 11.39-10.95Q12.24-9.39 12.25-7.46L12.25-7.46L12.25-6.81Q12.25-4.85 11.42-3.31Q10.60-1.76 9.10-0.88Q7.60-0.01 5.75 0L5.75 0ZM5.65-11.57L4.50-11.57L4.50-2.64L5.69-2.64Q7.17-2.64 7.96-3.69Q8.75-4.74 8.75-6.81L8.75-6.81L8.75-7.42Q8.75-9.48 7.96-10.53Q7.17-11.57 5.65-11.57L5.65-11.57ZM19.62-4.82L17.43-4.82L17.43 0L14.00 0L14.00-14.22L19.68-14.22Q21.31-14.22 22.56-13.62Q23.82-13.02 24.51-11.91Q25.20-10.80 25.20-9.39L25.20-9.39Q25.20-7.31 23.71-6.07Q22.22-4.82 19.62-4.82L19.62-4.82ZM17.43-11.57L17.43-7.47L19.68-7.47Q20.67-7.47 21.20-7.97Q21.72-8.47 21.72-9.38L21.72-9.38Q21.72-10.37 21.18-10.97Q20.64-11.56 19.72-11.57L19.72-11.57L17.43-11.57Z"></path></g></g></svg><style>@media (prefers-color-scheme: light) { :root { filter: none; } }
@media (prefers-color-scheme: dark) { :root { filter: none; } }
</style></svg>